# xmcd
#
# Track frame offsets:
#	150
#	13776
#	28325
#	44234
#	57462
#	74907
#	86451
#	97281
#	111223
#	126535
#	142597
#
# Disc length: 2027 seconds
#
# Revision: 0
# Processed by: cddbd v1.4PL0 Copyright (c) Steve Scherf et al.
# Submitted via: dBpowerAMP V4.0
#
DISCID=ae07e90b
DTITLE=D.B. Harris - Can I return These Flowers
DYEAR=2002
DGENRE=Country
TTITLE0=To Much For Me
TTITLE1=Night Time Man
TTITLE2=My Little Runaway
TTITLE3=Loneley Lady, Broken Man
TTITLE4=Overdeu (For Being Over You)
TTITLE5=Can I return These Flowers
TTITLE6=Hollywood In Texas
TTITLE7=Try This On For Size
TTITLE8=She's Cool To Me
TTITLE9=Sullivan Beach
TTITLE10=Love Me
EXTD=D.B. Harris\n4315 hank Ave.\nAustin, Texas\n512-693-4327\ndbrax@yahoo.com
EXTT0=
EXTT1=
EXTT2=
EXTT3=
EXTT4=
EXTT5=
EXTT6=
EXTT7=
EXTT8=
EXTT9=
EXTT10=
PLAYORDER=
